<svg width="1197" height="58" viewBox="0 0 1197 58" fill="none" xmlns="http://www.w3.org/2000/svg">
<path d="M1196.97 0.604492H16.1086V1.77339H1196.97V0.604492Z" fill="#F6F7F8"/>
<path d="M1134.76 32.1882H1169.76C1169.99 32.1925 1170.21 32.2408 1170.41 32.3303C1170.62 32.4198 1170.8 32.5487 1170.96 32.7097C1171.11 32.8708 1171.23 33.0608 1171.32 33.2688C1171.4 33.4768 1171.44 33.6988 1171.43 33.9221V55.5964C1171.44 55.8198 1171.4 56.0417 1171.32 56.2498C1171.23 56.4578 1171.11 56.6478 1170.96 56.8088C1170.8 56.9699 1170.62 57.0987 1170.41 57.1882C1170.21 57.2777 1169.99 57.326 1169.76 57.3303H1134.76C1134.54 57.326 1134.32 57.2777 1134.12 57.1882C1133.91 57.0987 1133.73 56.9699 1133.57 56.8088C1133.42 56.6478 1133.3 56.4578 1133.21 56.2498C1133.13 56.0417 1133.09 55.8198 1133.1 55.5964V33.9221C1133.09 33.6988 1133.13 33.4768 1133.21 33.2688C1133.3 33.0608 1133.42 32.8708 1133.57 32.7097C1133.73 32.5487 1133.91 32.4198 1134.12 32.3303C1134.32 32.2408 1134.54 32.1925 1134.76 32.1882Z" fill="url(#paint0_linear_8_525)"/>
<path d="M1163.07 49.4143L1162.82 48.1194H1160.08L1159.63 49.4143H1157.39L1160.6 41.3494C1160.67 41.1494 1160.81 40.9783 1160.99 40.8616C1161.17 40.7448 1161.38 40.6885 1161.59 40.7004H1163.32L1165.04 49.4153L1163.07 49.4143ZM1161.83 43.0701L1160.7 46.3313H1162.47L1161.83 43.0701ZM1154.55 43.1843C1154.55 44.1363 1157.55 44.3401 1157.55 46.5291C1157.55 48.6371 1155.33 49.4124 1153.86 49.4124C1153.03 49.4261 1152.2 49.2639 1151.44 48.9363L1151.76 47.0461C1152.64 47.7661 1155.31 47.9714 1155.31 46.8284C1155.31 45.6854 1152.33 45.6582 1152.33 43.4822C1152.33 41.1702 1154.86 40.6941 1155.93 40.6941C1156.59 40.711 1157.24 40.8352 1157.86 41.0613L1157.56 42.8704C1156.64 42.3584 1154.54 42.2362 1154.54 43.1882L1154.55 43.1843ZM1147.96 49.4143L1149.31 40.699H1151.46L1150.11 49.4143H1147.96ZM1142.81 49.4143L1140.94 41.8523C1141.27 42.0582 1141.58 42.2875 1141.88 42.5383C1142.78 43.3059 1143.46 44.2928 1143.86 45.4031L1144.1 46.6941L1146.16 40.7004H1148.47L1145.05 49.4153L1142.81 49.4143ZM1139.01 40.9382L1138.91 40.9084L1139.01 40.9382ZM1138.79 40.8733L1138.74 40.8601L1138.79 40.8733ZM1139.32 41.0432L1139.19 40.9983L1139.32 41.0432ZM1140.81 41.7683C1140.74 41.727 1140.68 41.6872 1140.61 41.6492C1140.68 41.6932 1140.74 41.7312 1140.81 41.7732L1140.81 41.7683ZM1140.3 41.4783C1140.24 41.4483 1140.18 41.4164 1140.12 41.3884C1140.18 41.4214 1140.24 41.4532 1140.3 41.4832L1140.3 41.4783ZM1139.76 41.2214L1139.64 41.1702L1139.76 41.2214Z" fill="#494CA3"/>
<path d="M1143.86 45.4072L1143.13 41.4892C1143.1 41.2531 1142.97 41.0404 1142.78 40.8945C1142.59 40.7486 1142.35 40.6809 1142.11 40.7046H1138.72L1138.68 40.8516C1139.86 41.1689 1140.95 41.7464 1141.88 42.5415C1142.77 43.3092 1143.46 44.2965 1143.86 45.4072Z" fill="#FFC000"/>
<path d="M1076.71 32.3494H1111.45C1111.9 32.3614 1112.32 32.5504 1112.63 32.8752C1112.94 33.2001 1113.11 33.6344 1113.1 34.0833V55.7561C1113.11 56.205 1112.94 56.6392 1112.63 56.9641C1112.32 57.289 1111.9 57.4779 1111.45 57.49H1076.71C1076.26 57.4779 1075.84 57.289 1075.53 56.9641C1075.22 56.6392 1075.05 56.205 1075.06 55.7561V34.0842C1075.05 33.6352 1075.22 33.2008 1075.53 32.8757C1075.84 32.5506 1076.26 32.3614 1076.71 32.3494Z" fill="#F1F1F1"/>
<path d="M1075.47 56.8992C1075.2 56.5784 1075.06 56.1745 1075.06 55.7581V34.0842C1075.05 33.6352 1075.22 33.2008 1075.53 32.8757C1075.84 32.5506 1076.27 32.3614 1076.71 32.3494H1111.45C1111.87 32.3503 1112.27 32.5168 1112.57 32.8132L1075.47 56.8992H1075.47Z" fill="white" fill-opacity="0.73"/>
<path d="M1089.71 50.3143L1091.01 47.9642L1090.28 42.3201H1092.05L1092.34 45.6605L1094.07 42.3201H1095.9L1091.69 50.3143H1089.71ZM1084.15 46.0985C1084.43 44.7245 1085.75 44.2884 1087.71 44.2884C1087.83 43.6774 1087.44 43.5242 1086.78 43.5472C1086.2 43.5755 1085.62 43.7086 1085.09 43.9403L1085.24 42.5672C1085.89 42.3671 1086.55 42.2497 1087.23 42.2181C1088.45 42.1961 1089.82 42.5875 1089.5 44.1805L1088.75 47.9305H1086.97L1087.09 47.3621C1086.89 47.5743 1086.64 47.7436 1086.37 47.8597C1086.1 47.9758 1085.8 48.0365 1085.51 48.0384C1084.67 48.0344 1083.92 47.4881 1084.15 46.0941L1084.15 46.0985ZM1085.96 46.0111C1085.91 46.09 1085.88 46.1835 1085.87 46.2801C1085.87 46.3767 1085.89 46.4724 1085.94 46.5555C1085.99 46.6385 1086.06 46.7056 1086.15 46.7484C1086.24 46.7911 1086.33 46.8075 1086.43 46.7962C1086.65 46.806 1086.87 46.7363 1087.04 46.5999C1087.21 46.4636 1087.33 46.2701 1087.37 46.0545C1087.39 45.886 1087.42 45.719 1087.47 45.5545H1087.02C1086.82 45.536 1086.62 45.5677 1086.43 45.6468C1086.25 45.7259 1086.09 45.8496 1085.96 46.0072V46.0111ZM1078.05 47.9305L1079.52 40.7581H1082.82C1083.12 40.7555 1083.41 40.8237 1083.67 40.9569C1083.94 41.09 1084.16 41.2842 1084.34 41.5233C1084.51 41.7624 1084.62 42.0393 1084.66 42.3309C1084.71 42.6225 1084.68 42.9201 1084.58 43.199C1084.49 43.8549 1084.16 44.4543 1083.66 44.887C1083.16 45.3197 1082.52 45.557 1081.85 45.5545H1080.47L1079.99 47.9305H1078.05ZM1080.75 44.1805H1081.66C1081.92 44.1593 1082.17 44.0518 1082.37 43.8748C1082.57 43.6979 1082.71 43.4607 1082.76 43.199C1082.81 43.0914 1082.82 42.9755 1082.81 42.8607C1082.8 42.7458 1082.76 42.6355 1082.69 42.5394C1082.63 42.4432 1082.54 42.3641 1082.44 42.3084C1082.34 42.2527 1082.23 42.2218 1082.11 42.2191H1081.16L1080.75 44.1805Z" fill="#3284AE"/>
<path d="M1101.37 46.094C1101.65 44.72 1102.99 44.2854 1104.98 44.2854C1105.11 43.6734 1104.72 43.5222 1104.05 43.5442C1103.45 43.5748 1102.87 43.7075 1102.32 43.9363L1102.47 42.5632C1103.13 42.3656 1103.81 42.2486 1104.5 42.2151C1105.74 42.1931 1107.1 42.584 1106.79 44.176L1106.02 47.925H1104.25L1104.36 47.3591C1103.94 47.7883 1103.35 48.0314 1102.75 48.0354C1101.89 48.0344 1101.13 47.489 1101.37 46.094ZM1103.2 46.0071C1103.15 46.0887 1103.12 46.1842 1103.12 46.282C1103.12 46.3798 1103.14 46.4755 1103.2 46.5583C1103.25 46.6412 1103.32 46.7073 1103.41 46.7488C1103.5 46.7902 1103.6 46.8054 1103.7 46.7922C1103.91 46.802 1104.13 46.732 1104.3 46.5959C1104.47 46.4598 1104.58 46.2666 1104.62 46.052C1104.66 45.877 1104.68 45.724 1104.72 45.552H1104.29C1104.08 45.5313 1103.88 45.5621 1103.69 45.6414C1103.5 45.7206 1103.33 45.8459 1103.2 46.0061L1103.2 46.0071ZM1106.84 47.925L1108.3 40.7312H1110.12L1108.64 47.925H1106.84ZM1095.27 47.925L1096.73 40.7542H1100.03C1100.33 40.7534 1100.62 40.8226 1100.88 40.9563C1101.14 41.09 1101.37 41.2842 1101.54 41.5227C1101.71 41.7613 1101.82 42.0372 1101.87 42.3279C1101.91 42.6186 1101.88 42.9156 1101.79 43.1941C1101.69 43.8523 1101.36 44.4535 1100.86 44.8865C1100.35 45.3195 1099.71 45.555 1099.04 45.5491H1097.68L1097.19 47.9241L1095.27 47.925ZM1097.96 44.176H1098.84C1099.11 44.1554 1099.37 44.049 1099.57 43.8723C1099.77 43.6956 1099.91 43.458 1099.97 43.1951C1100.01 43.086 1100.02 42.969 1100.01 42.8538C1100 42.7385 1099.95 42.6283 1099.89 42.5325C1099.82 42.4366 1099.74 42.3582 1099.63 42.303C1099.53 42.2478 1099.42 42.2174 1099.3 42.2151H1098.35L1097.96 44.176Z" fill="#3CA9C7"/>
<path d="M1018.53 32.1882H1053.5C1053.95 32.1974 1054.38 32.385 1054.69 32.7102C1055.01 33.0354 1055.18 33.4714 1055.17 33.9221V55.5964C1055.18 56.0472 1055.01 56.4827 1054.69 56.8079C1054.38 57.133 1053.95 57.3211 1053.5 57.3303H1018.53C1018.08 57.3211 1017.65 57.133 1017.34 56.8079C1017.02 56.4827 1016.85 56.0472 1016.86 55.5964V33.9221C1016.85 33.4714 1017.02 33.0354 1017.34 32.7102C1017.65 32.385 1018.08 32.1974 1018.53 32.1882Z" fill="#5870BE"/>
<path d="M1033.62 44.755C1033.62 42.9792 1034.15 41.2435 1035.13 39.7672C1036.12 38.2909 1037.52 37.1404 1039.16 36.461C1040.8 35.7817 1042.61 35.6042 1044.35 35.9508C1046.09 36.2974 1047.69 37.1526 1048.95 38.4083C1050.2 39.664 1051.06 41.2638 1051.4 43.0055C1051.75 44.7471 1051.57 46.5524 1050.89 48.193C1050.21 49.8336 1049.06 51.2356 1047.59 52.2223C1046.11 53.2089 1044.37 53.7358 1042.6 53.736C1041.42 53.736 1040.25 53.5037 1039.16 53.0524C1038.07 52.601 1037.08 51.9396 1036.25 51.1056C1035.41 50.2716 1034.75 49.2816 1034.3 48.192C1033.85 47.1024 1033.62 45.9343 1033.62 44.755Z" fill="#FFAF38"/>
<path d="M1028.84 53.7341C1027.31 53.7339 1025.8 53.3423 1024.47 52.5964C1023.13 51.8505 1022 50.7751 1021.2 49.4724C1020.4 48.1697 1019.94 46.6831 1019.87 45.1535C1019.8 43.6239 1020.13 42.1021 1020.81 40.7331C1021.5 39.3641 1022.52 38.1935 1023.79 37.3317C1025.05 36.47 1026.52 35.946 1028.04 35.8098C1029.57 35.6736 1031.1 35.9296 1032.5 36.5534C1033.9 37.1773 1035.11 38.1483 1036.03 39.3742H1034.83V39.9743H1036.44C1036.56 40.1653 1036.68 40.3632 1036.78 40.5632H1034.23V41.1633H1037.07C1037.16 41.3633 1037.24 41.5634 1037.31 41.7634H1033.63V42.363H1037.5C1037.98 44.137 1037.92 46.0173 1037.31 47.7521H1033.63V48.3522H1037.07C1036.98 48.5592 1036.88 48.7521 1036.78 48.9431H1034.23V49.5432H1036.44C1036.3 49.7532 1036.16 49.9543 1036.02 50.1433H1034.83V50.7434H1035.53C1034.69 51.6837 1033.66 52.436 1032.5 52.9514C1031.35 53.4667 1030.1 53.7332 1028.84 53.7341Z" fill="#E63737"/>
<path d="M1018.99 46.407L1019.54 42.1471L1020.38 42.256L1021 45.4016C1021.06 45.6945 1021.1 45.9134 1021.13 46.0583C1021.2 45.9095 1021.3 45.6916 1021.44 45.4045L1022.84 42.5714L1023.6 42.6688L1023.05 46.9288L1022.51 46.859L1022.97 43.2935L1021.27 46.7002L1020.76 46.6349L1020 42.8503L1019.53 46.4768L1018.99 46.407ZM1025.96 46.9147C1025.74 47.0545 1025.54 47.1467 1025.35 47.1914C1025.17 47.2363 1024.97 47.2456 1024.77 47.2193C1024.43 47.1758 1024.18 47.06 1024.02 46.872C1023.85 46.682 1023.79 46.4582 1023.82 46.2005C1023.84 46.0494 1023.89 45.9162 1023.98 45.8009C1024.06 45.684 1024.17 45.5948 1024.29 45.5334C1024.41 45.4723 1024.54 45.4313 1024.69 45.4104C1024.79 45.3965 1024.95 45.3902 1025.16 45.3917C1025.59 45.3955 1025.91 45.3753 1026.12 45.3312C1026.13 45.2598 1026.14 45.2144 1026.14 45.195C1026.17 44.9819 1026.14 44.8254 1026.05 44.7256C1025.93 44.5902 1025.74 44.5057 1025.48 44.4719C1025.23 44.4403 1025.04 44.4605 1024.91 44.5325C1024.78 44.6028 1024.68 44.7439 1024.59 44.9555L1024.09 44.8202C1024.17 44.6072 1024.27 44.4408 1024.39 44.3208C1024.51 44.1988 1024.68 44.115 1024.89 44.0691C1025.1 44.0214 1025.34 44.0145 1025.61 44.0486C1025.87 44.0824 1026.08 44.1409 1026.24 44.224C1026.39 44.3071 1026.5 44.4011 1026.57 44.506C1026.64 44.6089 1026.67 44.734 1026.69 44.8814C1026.69 44.9727 1026.68 45.1346 1026.65 45.3671L1026.56 46.0645C1026.5 46.5508 1026.47 46.8601 1026.47 46.9927C1026.48 47.1235 1026.51 47.2522 1026.56 47.3789L1026.01 47.3088C1025.97 47.1933 1025.96 47.062 1025.96 46.9147ZM1026.07 45.7409C1025.87 45.7941 1025.57 45.8234 1025.19 45.8289C1024.97 45.8323 1024.81 45.8476 1024.72 45.8749C1024.62 45.9023 1024.55 45.9506 1024.49 46.0199C1024.43 46.0873 1024.4 46.1665 1024.38 46.2576C1024.37 46.3971 1024.4 46.52 1024.5 46.6264C1024.59 46.7331 1024.74 46.7995 1024.94 46.8256C1025.14 46.8514 1025.33 46.8308 1025.5 46.7638C1025.67 46.6948 1025.8 46.5885 1025.89 46.445C1025.96 46.334 1026.01 46.1632 1026.04 45.9327L1026.07 45.7409ZM1027.12 46.514L1027.65 46.499C1027.65 46.7101 1027.71 46.8792 1027.83 47.0066C1027.95 47.1341 1028.12 47.2132 1028.36 47.2438C1028.6 47.2746 1028.79 47.2491 1028.92 47.1671C1029.04 47.0832 1029.12 46.9754 1029.13 46.8437C1029.15 46.7255 1029.11 46.6259 1029.02 46.545C1028.95 46.4893 1028.78 46.4073 1028.5 46.2991C1028.13 46.153 1027.88 46.0355 1027.74 45.9466C1027.6 45.8561 1027.5 45.7438 1027.44 45.6099C1027.38 45.4743 1027.36 45.3309 1027.38 45.1798C1027.4 45.0423 1027.44 44.9193 1027.52 44.8111C1027.6 44.7011 1027.7 44.6143 1027.82 44.5508C1027.91 44.5012 1028.02 44.465 1028.17 44.4422C1028.31 44.4177 1028.47 44.4158 1028.63 44.4364C1028.87 44.4675 1029.08 44.5296 1029.25 44.6227C1029.43 44.7161 1029.55 44.8284 1029.62 44.9597C1029.69 45.089 1029.73 45.2556 1029.74 45.4594L1029.22 45.4635C1029.22 45.3016 1029.17 45.169 1029.06 45.0654C1028.97 44.9621 1028.81 44.8974 1028.61 44.8713C1028.37 44.8405 1028.19 44.8582 1028.08 44.9245C1027.97 44.9907 1027.91 45.0771 1027.89 45.1837C1027.88 45.2515 1027.9 45.3152 1027.93 45.3749C1027.97 45.4366 1028.03 45.4917 1028.11 45.5402C1028.16 45.5662 1028.31 45.6306 1028.56 45.7331C1028.92 45.8794 1029.16 45.9938 1029.3 46.0764C1029.44 46.1573 1029.54 46.2631 1029.61 46.3939C1029.68 46.5247 1029.7 46.6792 1029.68 46.8575C1029.66 47.0318 1029.58 47.1899 1029.46 47.3317C1029.34 47.4718 1029.18 47.5722 1028.98 47.6328C1028.77 47.6915 1028.55 47.7053 1028.31 47.6742C1027.91 47.6228 1027.61 47.5002 1027.42 47.3065C1027.24 47.113 1027.13 46.8489 1027.12 46.514ZM1031.39 47.5226L1031.4 47.9943C1031.25 48.0064 1031.12 48.005 1031 47.9901C1030.81 47.9658 1030.67 47.9168 1030.57 47.8434C1030.47 47.7699 1030.41 47.682 1030.38 47.5796C1030.35 47.4754 1030.36 47.2663 1030.4 46.9525L1030.62 45.177L1030.24 45.1278L1030.29 44.721L1030.68 44.7702L1030.77 44.006L1031.34 43.7589L1031.2 44.8369L1031.72 44.9044L1031.67 45.3113L1031.14 45.2438L1030.91 47.0483C1030.89 47.1975 1030.89 47.2945 1030.9 47.3393C1030.92 47.3844 1030.94 47.4222 1030.98 47.4526C1031.02 47.4833 1031.08 47.5036 1031.15 47.5135C1031.21 47.521 1031.29 47.524 1031.39 47.5226ZM1034.08 47.3338L1034.61 47.47C1034.49 47.7748 1034.3 47.9996 1034.05 48.1444C1033.79 48.2891 1033.49 48.3385 1033.13 48.2925C1032.68 48.2346 1032.34 48.0501 1032.11 47.739C1031.88 47.4262 1031.8 47.019 1031.86 46.5172C1031.93 45.9981 1032.11 45.6123 1032.42 45.3599C1032.72 45.1075 1033.09 45.0086 1033.51 45.0633C1033.93 45.1163 1034.24 45.3 1034.47 45.6144C1034.7 45.9289 1034.78 46.3409 1034.71 46.8504C1034.71 46.8814 1034.7 46.9277 1034.69 46.9895L1032.39 46.6941C1032.36 47.0356 1032.43 47.3075 1032.58 47.5098C1032.73 47.7121 1032.93 47.8298 1033.19 47.8628C1033.38 47.8874 1033.55 47.8581 1033.7 47.7748C1033.85 47.6914 1033.97 47.5444 1034.08 47.3338ZM1032.47 46.2678L1034.2 46.4889C1034.21 46.2263 1034.16 46.0232 1034.07 45.8795C1033.93 45.6566 1033.73 45.5282 1033.46 45.4941C1033.22 45.4633 1033.01 45.5177 1032.83 45.6574C1032.64 45.7973 1032.52 46.0007 1032.47 46.2678ZM1035.15 48.4808L1035.54 45.3948L1036.01 45.4552L1035.95 45.9231C1036.1 45.7196 1036.23 45.5894 1036.34 45.5326C1036.45 45.4761 1036.57 45.4556 1036.69 45.4713C1036.87 45.4939 1037.04 45.5731 1037.21 45.7088L1036.97 46.171C1036.85 46.079 1036.72 46.0248 1036.6 46.0084C1036.48 45.9937 1036.38 46.0154 1036.28 46.0735C1036.18 46.1296 1036.1 46.2162 1036.04 46.3333C1035.96 46.5118 1035.91 46.7115 1035.88 46.9323L1035.67 48.548L1035.15 48.4808ZM1040.43 47.641L1040.98 47.8557C1040.8 48.3035 1040.54 48.6297 1040.2 48.8343C1039.87 49.0372 1039.48 49.1101 1039.03 49.0532C1038.57 48.9943 1038.21 48.8533 1037.95 48.6303C1037.68 48.4056 1037.5 48.1063 1037.39 47.7324C1037.29 47.3587 1037.26 46.9685 1037.32 46.5617C1037.37 46.118 1037.51 45.7424 1037.72 45.4347C1037.93 45.1253 1038.21 44.9054 1038.54 44.7749C1038.87 44.6428 1039.23 44.6008 1039.61 44.649C1040.03 44.7037 1040.38 44.8582 1040.64 45.1125C1040.9 45.3667 1041.07 45.6978 1041.13 46.1058L1040.56 46.1653C1040.5 45.8427 1040.38 45.5986 1040.21 45.433C1040.05 45.2675 1039.82 45.1665 1039.53 45.1299C1039.21 45.0879 1038.92 45.1312 1038.68 45.2598C1038.44 45.3886 1038.26 45.58 1038.14 45.8339C1038.01 46.086 1037.93 46.3524 1037.9 46.6333C1037.85 46.9956 1037.86 47.3191 1037.93 47.6037C1038.01 47.8866 1038.14 48.1092 1038.35 48.2715C1038.56 48.4338 1038.79 48.5316 1039.05 48.5649C1039.36 48.6054 1039.64 48.5487 1039.88 48.3946C1040.13 48.2406 1040.31 47.9894 1040.43 47.641ZM1043.5 49.1656C1043.28 49.3054 1043.08 49.3977 1042.89 49.4423C1042.71 49.4873 1042.51 49.4966 1042.3 49.4702C1041.97 49.4267 1041.72 49.3109 1041.55 49.1229C1041.39 48.9329 1041.33 48.7091 1041.36 48.4515C1041.38 48.3004 1041.43 48.1672 1041.52 48.0519C1041.6 47.9349 1041.71 47.8457 1041.83 47.7844C1041.95 47.7232 1042.08 47.6822 1042.23 47.6614C1042.33 47.6474 1042.49 47.6412 1042.7 47.6426C1043.13 47.6464 1043.45 47.6263 1043.66 47.5821C1043.67 47.5107 1043.68 47.4653 1043.68 47.4459C1043.71 47.2328 1043.68 47.0764 1043.59 46.9765C1043.47 46.8412 1043.28 46.7566 1043.01 46.7228C1042.77 46.6912 1042.58 46.7114 1042.45 46.7835C1042.32 46.8538 1042.22 46.9948 1042.13 47.2065L1041.63 47.0711C1041.71 46.8582 1041.81 46.6917 1041.93 46.5717C1042.05 46.4498 1042.22 46.3659 1042.43 46.3201C1042.64 46.2723 1042.88 46.2655 1043.15 46.2995C1043.41 46.3333 1043.62 46.3918 1043.78 46.4749C1043.93 46.5581 1044.04 46.652 1044.11 46.7569C1044.17 46.8598 1044.21 46.985 1044.23 47.1323C1044.23 47.2237 1044.22 47.3856 1044.19 47.618L1044.1 48.3154C1044.04 48.8017 1044.01 49.1111 1044.01 49.2436C1044.02 49.3745 1044.05 49.5032 1044.1 49.6298L1043.55 49.5597C1043.51 49.4443 1043.5 49.3129 1043.5 49.1656ZM1043.61 47.9919C1043.41 48.045 1043.11 48.0743 1042.73 48.0798C1042.51 48.0832 1042.35 48.0986 1042.26 48.1259C1042.16 48.1532 1042.09 48.2015 1042.03 48.2709C1041.97 48.3383 1041.93 48.4175 1041.92 48.5085C1041.91 48.648 1041.94 48.771 1042.04 48.8774C1042.13 48.984 1042.28 49.0504 1042.48 49.0765C1042.68 49.1024 1042.87 49.0818 1043.04 49.0147C1043.21 48.9458 1043.34 48.8395 1043.43 48.6959C1043.5 48.5849 1043.55 48.4142 1043.58 48.1836L1043.61 47.9919ZM1044.74 49.7122L1045.14 46.6262L1045.61 46.6866L1045.55 47.1545C1045.7 46.951 1045.83 46.8208 1045.94 46.764C1046.05 46.7074 1046.17 46.687 1046.29 46.7027C1046.46 46.7253 1046.64 46.8045 1046.8 46.9402L1046.56 47.4023C1046.44 47.3104 1046.32 47.2562 1046.19 47.2398C1046.08 47.2251 1045.97 47.2468 1045.87 47.3049C1045.77 47.361 1045.69 47.4476 1045.64 47.5647C1045.56 47.7432 1045.5 47.9429 1045.47 48.1637L1045.27 49.7794L1044.74 49.7122ZM1048.73 50.2242L1048.78 49.8349C1048.55 50.1158 1048.24 50.232 1047.86 50.1832C1047.61 50.1517 1047.4 50.0548 1047.21 49.8926C1047.02 49.7306 1046.88 49.5212 1046.8 49.2644C1046.72 49.0059 1046.7 48.7187 1046.74 48.403C1046.78 48.0949 1046.87 47.8226 1047 47.5858C1047.14 47.3472 1047.31 47.1742 1047.54 47.0669C1047.76 46.9596 1048 46.9222 1048.25 46.9547C1048.44 46.9786 1048.6 47.0396 1048.73 47.1377C1048.87 47.2338 1048.97 47.3507 1049.05 47.4883L1049.24 45.9598L1049.76 46.0265L1049.22 50.2865L1048.73 50.2242ZM1047.28 48.472C1047.23 48.8671 1047.27 49.1733 1047.41 49.3903C1047.55 49.6073 1047.74 49.7304 1047.97 49.7595C1048.19 49.7888 1048.4 49.7207 1048.58 49.5551C1048.77 49.3878 1048.88 49.1124 1048.93 48.7288C1048.99 48.3065 1048.95 47.9861 1048.81 47.7676C1048.67 47.5492 1048.48 47.4246 1048.25 47.3941C1048.01 47.3642 1047.81 47.4342 1047.62 47.6039C1047.45 47.7738 1047.33 48.0632 1047.28 48.472Z" fill="white"/>
<path d="M960.662 32.386H995.644C995.867 32.3904 996.087 32.439 996.292 32.5286C996.496 32.6181 996.681 32.7469 996.836 32.908C996.991 33.069 997.112 33.2591 997.193 33.467C997.275 33.675 997.314 33.8971 997.31 34.1204V55.7961C997.319 56.2469 997.148 56.6826 996.836 57.0076C996.523 57.3326 996.095 57.5201 995.644 57.5291H960.662C960.211 57.5201 959.782 57.3326 959.47 57.0076C959.157 56.6826 958.987 56.2469 958.996 55.7961V34.1204C958.991 33.8971 959.031 33.675 959.112 33.467C959.193 33.2591 959.315 33.069 959.469 32.908C959.624 32.7469 959.809 32.6181 960.014 32.5286C960.218 32.439 960.438 32.3904 960.662 32.386Z" fill="#353A40"/>
<path d="M981.685 48.9503C981.42 48.8159 981.203 48.6042 981.061 48.3439C980.89 48.0252 980.808 47.6674 980.821 47.3063C980.806 47.0601 980.84 46.8135 980.922 46.5807C981.003 46.3479 981.13 46.1337 981.295 45.9503C981.47 45.7834 981.678 45.6542 981.905 45.5709C982.132 45.4877 982.374 45.4517 982.616 45.466C982.859 45.4503 983.103 45.4845 983.333 45.5665C983.563 45.6486 983.773 45.7767 983.952 45.943C984.115 46.123 984.241 46.3338 984.321 46.5631C984.402 46.7924 984.436 47.0354 984.421 47.278C984.436 47.6296 984.367 47.9798 984.221 48.2999C984.089 48.5605 983.883 48.7765 983.629 48.921C983.331 49.0783 982.998 49.155 982.662 49.1432C982.326 49.1553 981.991 49.0894 981.685 48.9503ZM982.091 46.5333C981.962 46.7717 981.894 47.0382 981.894 47.3092C981.894 47.5802 981.962 47.8468 982.091 48.0851C982.159 48.1589 982.241 48.2176 982.333 48.2579C982.425 48.2982 982.524 48.3195 982.625 48.3195C982.725 48.3195 982.824 48.2982 982.916 48.2579C983.008 48.2176 983.091 48.1589 983.159 48.0851C983.31 47.8378 983.377 47.5476 983.349 47.2589C983.37 46.9984 983.3 46.7387 983.149 46.525C983.083 46.4485 983 46.3883 982.907 46.3483C982.814 46.3083 982.714 46.2896 982.613 46.2941C982.513 46.2913 982.414 46.3112 982.324 46.3527C982.233 46.3941 982.154 46.4562 982.091 46.5333ZM972.179 49.1071C972.004 49.0899 971.835 49.0404 971.679 48.9611C971.537 48.8838 971.412 48.7794 971.311 48.6539C971.207 48.5349 971.129 48.396 971.082 48.2452C971.02 48.0509 970.987 47.8489 970.982 47.6451V45.527H972.053V47.695C972.048 47.7774 972.06 47.8602 972.087 47.9381C972.114 48.016 972.157 48.0876 972.212 48.1491C972.333 48.2533 972.488 48.3107 972.648 48.3107C972.808 48.3107 972.962 48.2533 973.084 48.1491C973.139 48.087 973.181 48.0146 973.208 47.9362C973.235 47.8577 973.247 47.7749 973.242 47.692V45.5241H974.313V47.6422C974.313 47.8464 974.28 48.0493 974.213 48.2423C974.151 48.4259 974.048 48.5929 973.913 48.7311C973.793 48.8617 973.646 48.9639 973.482 49.0309C973.241 49.1149 972.986 49.155 972.731 49.1491C972.546 49.1454 972.362 49.1311 972.18 49.1061L972.179 49.1071ZM987.318 49.0831L986.018 47.131V49.0831H985.008V45.528H986.008L987.317 47.4943V45.528H988.329V49.0831H987.318ZM977.34 49.0831L976.04 47.131V49.0831H975.03V45.528H976.03L977.338 47.4943V45.528H978.35V49.0831H977.34ZM979.11 49.0739V45.525H980.19V49.0739H979.11ZM970.905 44.0929C970.673 43.853 970.536 43.5381 970.518 43.2052L971.54 43.1403C971.55 43.2789 971.597 43.4122 971.674 43.528C971.729 43.5996 971.802 43.6567 971.884 43.6945C971.967 43.7322 972.057 43.7499 972.148 43.7452C972.276 43.7538 972.402 43.7139 972.503 43.6339C972.54 43.6042 972.571 43.5666 972.592 43.5236C972.613 43.4806 972.624 43.4333 972.625 43.3854C972.625 43.3375 972.615 43.2902 972.595 43.2467C972.575 43.2032 972.546 43.1646 972.509 43.1339C972.343 43.0262 972.155 42.9558 971.959 42.9279C971.593 42.8667 971.248 42.7189 970.952 42.4962C970.854 42.4112 970.776 42.3053 970.725 42.1867C970.673 42.068 970.648 41.9396 970.652 41.8102C970.652 41.6265 970.706 41.4468 970.807 41.2931C970.921 41.1217 971.083 40.9885 971.274 40.9103C971.546 40.8059 971.837 40.7585 972.129 40.7711C972.486 40.7473 972.841 40.8361 973.145 41.025C973.267 41.122 973.368 41.2441 973.439 41.3829C973.511 41.5217 973.553 41.6742 973.561 41.8302L972.549 41.8912C972.535 41.7584 972.475 41.6345 972.379 41.5421C972.277 41.4642 972.15 41.4256 972.022 41.4332C971.921 41.4259 971.821 41.4547 971.74 41.5143C971.71 41.5382 971.686 41.5685 971.669 41.6032C971.653 41.6378 971.644 41.6756 971.645 41.714C971.646 41.7439 971.653 41.7733 971.667 41.7999C971.68 41.8266 971.7 41.8502 971.724 41.8683C971.833 41.9378 971.956 41.9821 972.085 41.9982C972.432 42.0625 972.771 42.1679 973.094 42.3121C973.276 42.3994 973.429 42.5363 973.537 42.7072C973.63 42.8664 973.677 43.0478 973.675 43.2321C973.676 43.4559 973.612 43.6752 973.49 43.8629C973.364 44.0567 973.185 44.2091 972.973 44.3009C972.707 44.408 972.423 44.4591 972.137 44.4503C971.695 44.4965 971.253 44.3676 970.905 44.0919V44.0929ZM987.319 44.3829L986.019 42.4303V44.3829H985.009V40.8283H986.009L987.318 42.7951V40.8283H988.33V44.3829H987.319ZM983.444 44.3829L982.87 43.296C982.824 43.193 982.757 43.1002 982.675 43.0231C982.598 42.9681 982.505 42.939 982.411 42.9401H982.316V44.3829H981.237V40.8283H983.026C983.282 40.8182 983.539 40.8474 983.787 40.9152C983.961 40.972 984.11 41.0855 984.212 41.2379C984.323 41.409 984.379 41.6102 984.373 41.8141C984.377 41.9923 984.335 42.1687 984.25 42.3253C984.167 42.4677 984.05 42.5867 983.91 42.672C983.792 42.7388 983.665 42.7868 983.533 42.8141C983.632 42.8434 983.726 42.8871 983.813 42.944C983.877 42.9996 983.934 43.0627 983.984 43.132C984.041 43.2004 984.091 43.2743 984.135 43.3522L984.655 44.3829H983.444ZM982.317 42.2672H982.77C982.866 42.2603 982.961 42.2439 983.054 42.2189C983.123 42.2046 983.185 42.1652 983.228 42.108C983.273 42.0485 983.297 41.9757 983.296 41.901C983.299 41.8517 983.291 41.8023 983.272 41.7565C983.254 41.7106 983.225 41.6692 983.189 41.6359C983.069 41.5623 982.928 41.5305 982.789 41.5451H982.317V42.2672ZM977.717 44.3829V40.8283H980.595V41.587H978.795V42.152H980.467V42.8781H978.795V43.5783H980.65V44.3829H977.717ZM975.065 44.3829V41.7062H973.97V40.8283H977.235V41.7062H976.135V44.3829H975.065ZM967.2 44.3829V40.8283H970.078V41.587H968.278V42.152H969.949V42.8781H968.27V43.5783H970.123V44.3829H967.2ZM965.033 44.3829L964.424 42.1442L963.817 44.3829H962.764L961.991 40.8283H963.011L963.378 42.818L963.916 40.8283H964.932L965.471 42.816L965.838 40.8283H966.853L966.087 44.3829H965.033Z" fill="#ECD345"/>
<path d="M993.12 49.1453V40.7654H994.32V49.1453H993.12ZM990.13 49.1453V40.7654H991.33V49.1453H990.13Z" fill="#ECD345"/>
<path d="M10.6459 43.5122C10.6459 40.8382 8.48987 38.6822 5.81587 38.6822C3.15587 38.6822 0.985873 40.8382 0.985873 43.5122C0.985873 46.1722 3.15587 48.3422 5.81587 48.3422C8.48987 48.3422 10.6459 46.1722 10.6459 43.5122ZM10.2119 43.5122C10.2119 45.9342 8.23787 47.9082 5.81587 47.9082C3.39387 47.9082 1.41987 45.9342 1.41987 43.5122C1.41987 41.0902 3.39387 39.1162 5.81587 39.1162C8.23787 39.1162 10.2119 41.0902 10.2119 43.5122ZM7.53787 45.2202C7.17387 45.7102 6.51587 46.0322 5.84387 46.0322C4.58387 46.0322 3.44987 44.9682 3.44987 43.4982C3.44987 41.9862 4.58387 40.9782 5.84387 40.9782C6.50187 40.9782 7.17387 41.2862 7.53787 41.7762L7.88787 41.4402C7.39787 40.8662 6.71187 40.5162 5.84387 40.5162C4.23387 40.5162 2.93187 41.7902 2.93187 43.4982C2.93187 45.2062 4.23387 46.4942 5.84387 46.4942C6.71187 46.4942 7.39787 46.1582 7.90187 45.5702L7.53787 45.2202ZM22.0437 48.1882V47.1522H17.4657C20.0697 45.0942 22.0017 43.3582 22.0017 41.4542C22.0017 39.5922 20.4197 38.7102 18.8657 38.7102C17.5497 38.7102 16.3317 39.2422 15.6177 40.1802L16.3317 40.9222C16.8777 40.2222 17.7457 39.7462 18.8657 39.7462C19.8317 39.7462 20.8117 40.2642 20.8117 41.4542C20.8117 43.0642 18.9917 44.6182 15.6317 47.2642V48.1882H22.0437ZM27.3902 48.3562C29.9382 48.3562 30.9602 45.7942 30.9602 43.5262C30.9602 41.2442 29.9382 38.7102 27.3902 38.7102C24.8282 38.7102 23.8202 41.2442 23.8202 43.5262C23.8202 45.7942 24.8282 48.3562 27.3902 48.3562ZM27.3902 47.3202C25.6122 47.3202 25.0102 45.3882 25.0102 43.5262C25.0102 41.6642 25.6122 39.7462 27.3902 39.7462C29.1682 39.7462 29.7702 41.6642 29.7702 43.5262C29.7702 45.3882 29.1682 47.3202 27.3902 47.3202ZM35.3325 48.1882V38.8502H34.3105L31.9725 41.2582L32.6725 41.9722L34.1705 40.3902V48.1882H35.3325ZM40.4966 48.3562C42.3306 48.3562 43.8426 47.4042 43.8426 45.8222C43.8426 44.5762 42.7786 43.7222 41.6166 43.3722C42.6946 43.0642 43.7026 42.3642 43.7026 41.1322C43.7026 39.4522 42.0366 38.7102 40.4966 38.7102C38.9426 38.7102 37.3046 39.4522 37.3046 41.1322C37.3046 42.3642 38.2986 43.0642 39.3766 43.3722C38.2146 43.7222 37.1506 44.5762 37.1506 45.8222C37.1506 47.4182 38.6486 48.3562 40.4966 48.3562ZM40.4966 42.8962C39.9366 42.7982 38.4666 42.4202 38.4666 41.2862C38.4666 40.3202 39.3626 39.7462 40.4966 39.7462C41.6166 39.7462 42.5266 40.3202 42.5266 41.2862C42.5266 42.4202 41.0706 42.7982 40.4966 42.8962ZM40.4966 47.3202C39.3346 47.3202 38.3126 46.7042 38.3126 45.6962C38.3126 44.4782 39.9226 43.9602 40.4966 43.8902C41.0706 43.9602 42.6666 44.4782 42.6666 45.6962C42.6666 46.7042 41.6446 47.3202 40.4966 47.3202ZM55.3767 48.1882V47.1522H50.4207V43.9322H55.2787V42.8962H50.4207V39.8862H55.3767V38.8502H49.2587V48.1882H55.3767ZM60.1695 48.3562C61.4015 48.3562 62.1295 47.8522 62.6475 47.1802L61.9475 46.5362C61.4995 47.1382 60.9255 47.4182 60.2255 47.4182C58.7835 47.4182 57.8875 46.2982 57.8875 44.8002C57.8875 43.3022 58.7835 42.1962 60.2255 42.1962C60.9255 42.1962 61.4995 42.4622 61.9475 43.0782L62.6475 42.4342C62.1295 41.7622 61.4015 41.2582 60.1695 41.2582C58.1535 41.2582 56.7955 42.7982 56.7955 44.8002C56.7955 46.8162 58.1535 48.3562 60.1695 48.3562ZM67.0731 48.3562C69.1311 48.3562 70.4191 46.7602 70.4191 44.8002C70.4191 42.8402 69.1311 41.2582 67.0731 41.2582C65.0151 41.2582 63.7271 42.8402 63.7271 44.8002C63.7271 46.7602 65.0151 48.3562 67.0731 48.3562ZM67.0731 47.4182C65.6311 47.4182 64.8191 46.1862 64.8191 44.8002C64.8191 43.4282 65.6311 42.1962 67.0731 42.1962C68.5151 42.1962 69.3131 43.4282 69.3131 44.8002C69.3131 46.1862 68.5151 47.4182 67.0731 47.4182ZM81.3428 48.1882V43.3022C81.3428 41.9442 80.6848 41.2582 79.4528 41.2582C78.4728 41.2582 77.5628 41.9022 77.1848 42.5182C76.9888 41.8182 76.4008 41.2582 75.3648 41.2582C74.3708 41.2582 73.4608 41.9722 73.1808 42.4062V41.4262H72.1308V48.1882H73.1808V43.2462C73.5448 42.7002 74.2728 42.1962 74.9588 42.1962C75.8408 42.1962 76.2048 42.7422 76.2048 43.5962V48.1882H77.2548V43.2322C77.6048 42.7002 78.3468 42.1962 79.0468 42.1962C79.9148 42.1962 80.2928 42.7422 80.2928 43.5962V48.1882H81.3428ZM92.6495 48.1882V43.3022C92.6495 41.9442 91.9915 41.2582 90.7595 41.2582C89.7795 41.2582 88.8695 41.9022 88.4915 42.5182C88.2955 41.8182 87.7075 41.2582 86.6715 41.2582C85.6775 41.2582 84.7675 41.9722 84.4875 42.4062V41.4262H83.4375V48.1882H84.4875V43.2462C84.8515 42.7002 85.5795 42.1962 86.2655 42.1962C87.1475 42.1962 87.5115 42.7422 87.5115 43.5962V48.1882H88.5615V43.2322C88.9115 42.7002 89.6535 42.1962 90.3535 42.1962C91.2215 42.1962 91.5995 42.7422 91.5995 43.5962V48.1882H92.6495ZM97.7961 48.3562C98.9021 48.3562 99.8121 47.9922 100.484 47.3202L99.9801 46.6342C99.4481 47.1802 98.6641 47.4882 97.8941 47.4882C96.4381 47.4882 95.5421 46.4242 95.4581 45.1502H100.932V44.8842C100.932 42.8542 99.7281 41.2582 97.6841 41.2582C95.7521 41.2582 94.3521 42.8402 94.3521 44.8002C94.3521 46.9142 95.7941 48.3562 97.7961 48.3562ZM99.8961 44.3802H95.4581C95.5141 43.3442 96.2281 42.1262 97.6701 42.1262C99.2101 42.1262 99.8821 43.3722 99.8961 44.3802ZM103.683 48.1882V43.4002C103.991 42.8542 104.873 42.3222 105.517 42.3222C105.685 42.3222 105.811 42.3362 105.937 42.3642V41.2862C105.013 41.2862 104.229 41.8042 103.683 42.5182V41.4262H102.633V48.1882H103.683ZM110.236 48.3562C111.468 48.3562 112.196 47.8522 112.714 47.1802L112.014 46.5362C111.566 47.1382 110.992 47.4182 110.292 47.4182C108.85 47.4182 107.954 46.2982 107.954 44.8002C107.954 43.3022 108.85 42.1962 110.292 42.1962C110.992 42.1962 111.566 42.4622 112.014 43.0782L112.714 42.4342C112.196 41.7622 111.468 41.2582 110.236 41.2582C108.22 41.2582 106.862 42.7982 106.862 44.8002C106.862 46.8162 108.22 48.3562 110.236 48.3562ZM117.237 48.3562C118.343 48.3562 119.253 47.9922 119.925 47.3202L119.421 46.6342C118.889 47.1802 118.105 47.4882 117.335 47.4882C115.879 47.4882 114.983 46.4242 114.899 45.1502H120.373V44.8842C120.373 42.8542 119.169 41.2582 117.125 41.2582C115.193 41.2582 113.793 42.8402 113.793 44.8002C113.793 46.9142 115.235 48.3562 117.237 48.3562ZM119.337 44.3802H114.899C114.955 43.3442 115.669 42.1262 117.111 42.1262C118.651 42.1262 119.323 43.3722 119.337 44.3802ZM127.392 48.3562C128.008 48.3562 128.386 48.1742 128.652 47.9222L128.344 47.1382C128.204 47.2922 127.924 47.4182 127.63 47.4182C127.168 47.4182 126.944 47.0542 126.944 46.5502V42.3502H128.316V41.4262H126.944V39.5782H125.894V41.4262H124.774V42.3502H125.894V46.7742C125.894 47.7822 126.398 48.3562 127.392 48.3562ZM135.427 48.1882V43.4142C135.427 41.9442 134.685 41.2582 133.271 41.2582C132.249 41.2582 131.325 41.8462 130.849 42.4062V38.8502H129.799V48.1882H130.849V43.2462C131.255 42.7002 132.039 42.1962 132.851 42.1962C133.761 42.1962 134.377 42.5462 134.377 43.7362V48.1882H135.427ZM140.575 48.3562C141.681 48.3562 142.591 47.9922 143.263 47.3202L142.759 46.6342C142.227 47.1802 141.443 47.4882 140.673 47.4882C139.217 47.4882 138.321 46.4242 138.237 45.1502H143.711V44.8842C143.711 42.8542 142.507 41.2582 140.463 41.2582C138.531 41.2582 137.131 42.8402 137.131 44.8002C137.131 46.9142 138.573 48.3562 140.575 48.3562ZM142.675 44.3802H138.237C138.293 43.3442 139.007 42.1262 140.449 42.1262C141.989 42.1262 142.661 43.3722 142.675 44.3802ZM154.624 48.1882V43.3022C154.624 41.9442 153.966 41.2582 152.734 41.2582C151.754 41.2582 150.844 41.9022 150.466 42.5182C150.27 41.8182 149.682 41.2582 148.646 41.2582C147.652 41.2582 146.742 41.9722 146.462 42.4062V41.4262H145.412V48.1882H146.462V43.2462C146.826 42.7002 147.554 42.1962 148.24 42.1962C149.122 42.1962 149.486 42.7422 149.486 43.5962V48.1882H150.536V43.2322C150.886 42.7002 151.628 42.1962 152.328 42.1962C153.196 42.1962 153.574 42.7422 153.574 43.5962V48.1882H154.624ZM159.771 48.3562C160.877 48.3562 161.787 47.9922 162.459 47.3202L161.955 46.6342C161.423 47.1802 160.639 47.4882 159.869 47.4882C158.413 47.4882 157.517 46.4242 157.433 45.1502H162.907V44.8842C162.907 42.8542 161.703 41.2582 159.659 41.2582C157.727 41.2582 156.327 42.8402 156.327 44.8002C156.327 46.9142 157.769 48.3562 159.771 48.3562ZM161.871 44.3802H157.433C157.489 43.3442 158.203 42.1262 159.645 42.1262C161.185 42.1262 161.857 43.3722 161.871 44.3802ZM169.267 46.3542V43.2882C169.631 42.7002 170.457 42.1962 171.283 42.1962C172.655 42.1962 173.467 43.3162 173.467 44.8142C173.467 46.3122 172.655 47.4182 171.283 47.4182C170.457 47.4182 169.631 46.9422 169.267 46.3542ZM169.267 48.1882V47.1802C169.771 47.8662 170.597 48.3562 171.549 48.3562C173.313 48.3562 174.559 47.0122 174.559 44.8142C174.559 42.6582 173.313 41.2582 171.549 41.2582C170.625 41.2582 169.813 41.7062 169.267 42.4482V38.8502H168.217V48.1882H169.267ZM175.891 50.8342C176.087 50.8902 176.437 50.9322 176.661 50.9322C177.557 50.9182 178.243 50.5402 178.649 49.5602L182.037 41.4262H180.889L178.649 46.9702L176.395 41.4262H175.261L178.089 48.2582L177.641 49.2802C177.403 49.8402 177.095 49.9942 176.633 49.9942C176.465 49.9942 176.213 49.9522 176.059 49.8822L175.891 50.8342ZM193.644 48.1882L195.8 41.4262H194.708L193.056 46.8162L191.278 41.4262H190.382L188.604 46.8162L186.952 41.4262H185.86L188.016 48.1882H189.066L190.83 42.7562L192.594 48.1882H193.644ZM203.925 48.1882L206.081 41.4262H204.989L203.337 46.8162L201.559 41.4262H200.663L198.885 46.8162L197.233 41.4262H196.141L198.297 48.1882H199.347L201.111 42.7562L202.875 48.1882H203.925ZM214.207 48.1882L216.363 41.4262H215.271L213.619 46.8162L211.841 41.4262H210.945L209.167 46.8162L207.515 41.4262H206.423L208.579 48.1882H209.629L211.393 42.7562L213.157 48.1882H214.207ZM217.531 48.3282C217.951 48.3282 218.301 47.9782 218.301 47.5582C218.301 47.1382 217.951 46.7882 217.531 46.7882C217.111 46.7882 216.761 47.1382 216.761 47.5582C216.761 47.9782 217.111 48.3282 217.531 48.3282ZM221.247 46.3542V43.2882C221.611 42.7002 222.437 42.1962 223.263 42.1962C224.635 42.1962 225.447 43.3162 225.447 44.8142C225.447 46.3122 224.635 47.4182 223.263 47.4182C222.437 47.4182 221.611 46.9422 221.247 46.3542ZM221.247 48.1882V47.1802C221.751 47.8662 222.577 48.3562 223.529 48.3562C225.293 48.3562 226.539 47.0122 226.539 44.8142C226.539 42.6582 225.293 41.2582 223.529 41.2582C222.605 41.2582 221.793 41.7062 221.247 42.4482V38.8502H220.197V48.1882H221.247ZM228.768 40.4602C229.16 40.4602 229.482 40.1522 229.482 39.7602C229.482 39.3682 229.16 39.0462 228.768 39.0462C228.39 39.0462 228.068 39.3682 228.068 39.7602C228.068 40.1522 228.39 40.4602 228.768 40.4602ZM229.3 48.1882V41.4262H228.25V48.1882H229.3ZM233.536 48.3562C235.286 48.3562 236.196 47.4462 236.196 46.3122C236.196 43.6802 232.01 44.6602 232.01 43.1762C232.01 42.5742 232.584 42.1122 233.508 42.1122C234.376 42.1122 235.118 42.4762 235.524 42.9662L236.014 42.2382C235.468 41.6922 234.656 41.2582 233.508 41.2582C231.898 41.2582 230.988 42.1542 230.988 43.2042C230.988 45.7102 235.174 44.7022 235.174 46.3402C235.174 47.0122 234.614 47.5022 233.578 47.5022C232.654 47.5022 231.8 47.0542 231.352 46.5362L230.806 47.2922C231.492 48.0202 232.43 48.3562 233.536 48.3562ZM240.954 48.3562C242.06 48.3562 242.97 47.9922 243.642 47.3202L243.138 46.6342C242.606 47.1802 241.822 47.4882 241.052 47.4882C239.596 47.4882 238.7 46.4242 238.616 45.1502H244.09V44.8842C244.09 42.8542 242.886 41.2582 240.842 41.2582C238.91 41.2582 237.51 42.8402 237.51 44.8002C237.51 46.9142 238.952 48.3562 240.954 48.3562ZM243.054 44.3802H238.616C238.672 43.3442 239.386 42.1262 240.828 42.1262C242.368 42.1262 243.04 43.3722 243.054 44.3802ZM251.405 48.1882V43.4422C251.405 41.9722 250.663 41.2582 249.249 41.2582C248.241 41.2582 247.317 41.8462 246.841 42.4062V41.4262H245.791V48.1882H246.841V43.2462C247.233 42.7002 248.017 42.1962 248.843 42.1962C249.753 42.1962 250.355 42.5742 250.355 43.7642V48.1882H251.405ZM254.552 46.3542V43.2882C254.916 42.7002 255.742 42.1962 256.568 42.1962C257.94 42.1962 258.752 43.3162 258.752 44.8142C258.752 46.3122 257.94 47.4182 256.568 47.4182C255.742 47.4182 254.916 46.9422 254.552 46.3542ZM254.552 48.1882V47.1802C255.056 47.8662 255.882 48.3562 256.834 48.3562C258.598 48.3562 259.844 47.0122 259.844 44.8142C259.844 42.6582 258.598 41.2582 256.834 41.2582C255.91 41.2582 255.098 41.7062 254.552 42.4482V38.8502H253.502V48.1882H254.552ZM266.833 48.1882V43.5402C266.833 41.9022 265.643 41.2582 264.215 41.2582C263.109 41.2582 262.241 41.6222 261.513 42.3782L262.003 43.1062C262.605 42.4622 263.263 42.1682 264.075 42.1682C265.055 42.1682 265.783 42.6862 265.783 43.5962V44.8142C265.237 44.1842 264.467 43.8902 263.543 43.8902C262.395 43.8902 261.177 44.6042 261.177 46.1162C261.177 47.5862 262.395 48.3562 263.543 48.3562C264.453 48.3562 265.223 48.0342 265.783 47.4182V48.1882H266.833ZM263.921 47.6002C262.941 47.6002 262.255 46.9842 262.255 46.1302C262.255 45.2622 262.941 44.6462 263.921 44.6462C264.663 44.6462 265.377 44.9262 265.783 45.4862V46.7602C265.377 47.3202 264.663 47.6002 263.921 47.6002ZM271.989 48.3562C273.095 48.3562 274.005 47.9922 274.677 47.3202L274.173 46.6342C273.641 47.1802 272.857 47.4882 272.087 47.4882C270.631 47.4882 269.735 46.4242 269.651 45.1502H275.125V44.8842C275.125 42.8542 273.921 41.2582 271.877 41.2582C269.945 41.2582 268.545 42.8402 268.545 44.8002C268.545 46.9142 269.987 48.3562 271.989 48.3562ZM274.089 44.3802H269.651C269.707 43.3442 270.421 42.1262 271.863 42.1262C273.403 42.1262 274.075 43.3722 274.089 44.3802ZM279.78 48.1882L282.594 41.4262H281.446L279.206 46.9702L276.952 41.4262H275.818L278.632 48.1882H279.78ZM283.306 48.3282C283.726 48.3282 284.076 47.9782 284.076 47.5582C284.076 47.1382 283.726 46.7882 283.306 46.7882C282.886 46.7882 282.536 47.1382 282.536 47.5582C282.536 47.9782 282.886 48.3282 283.306 48.3282ZM288.859 48.3562C290.091 48.3562 290.819 47.8522 291.337 47.1802L290.637 46.5362C290.189 47.1382 289.615 47.4182 288.915 47.4182C287.473 47.4182 286.577 46.2982 286.577 44.8002C286.577 43.3022 287.473 42.1962 288.915 42.1962C289.615 42.1962 290.189 42.4622 290.637 43.0782L291.337 42.4342C290.819 41.7622 290.091 41.2582 288.859 41.2582C286.843 41.2582 285.485 42.7982 285.485 44.8002C285.485 46.8162 286.843 48.3562 288.859 48.3562ZM295.763 48.3562C297.821 48.3562 299.109 46.7602 299.109 44.8002C299.109 42.8402 297.821 41.2582 295.763 41.2582C293.705 41.2582 292.417 42.8402 292.417 44.8002C292.417 46.7602 293.705 48.3562 295.763 48.3562ZM295.763 47.4182C294.321 47.4182 293.509 46.1862 293.509 44.8002C293.509 43.4282 294.321 42.1962 295.763 42.1962C297.205 42.1962 298.003 43.4282 298.003 44.8002C298.003 46.1862 297.205 47.4182 295.763 47.4182ZM310.032 48.1882V43.3022C310.032 41.9442 309.374 41.2582 308.142 41.2582C307.162 41.2582 306.252 41.9022 305.874 42.5182C305.678 41.8182 305.09 41.2582 304.054 41.2582C303.06 41.2582 302.15 41.9722 301.87 42.4062V41.4262H300.82V48.1882H301.87V43.2462C302.234 42.7002 302.962 42.1962 303.648 42.1962C304.53 42.1962 304.894 42.7422 304.894 43.5962V48.1882H305.944V43.2322C306.294 42.7002 307.036 42.1962 307.736 42.1962C308.604 42.1962 308.982 42.7422 308.982 43.5962V48.1882H310.032Z" fill="#C1C8CE"/>
<defs>
<linearGradient id="paint0_linear_8_525" x1="1152.26" y1="57.3303" x2="1152.26" y2="32.1882" gradientUnits="userSpaceOnUse">
<stop stop-color="#E59703"/>
<stop offset="0.231" stop-color="#E59703"/>
<stop offset="0.234" stop-color="white"/>
<stop offset="0.761" stop-color="white"/>
<stop offset="0.766" stop-color="#5457BB"/>
<stop offset="1" stop-color="#5457BB"/>
</linearGradient>
</defs>
</svg>
