<svg width="52" height="25" viewBox="0 0 52 25" fill="none" xmlns="http://www.w3.org/2000/svg">
<path d="M7.4104 18.9794C11.0304 18.9794 12.8504 16.8594 12.8504 13.5394V5.39944H11.1904V13.5194C11.1904 15.9594 9.8704 17.4994 7.4104 17.4994C4.9504 17.4994 3.6304 15.9594 3.6304 13.5194V5.39944H1.9704V13.5594C1.9704 16.8394 3.7904 18.9794 7.4104 18.9794ZM20.2943 18.9794C23.8943 18.9794 25.2143 16.9994 25.2143 15.0594C25.2143 10.0794 17.3143 11.7994 17.3143 8.79944C17.3143 7.53944 18.4543 6.67944 20.0543 6.67944C21.5143 6.67944 22.9143 7.17944 23.9143 8.27944L24.9143 7.05944C23.7943 5.87944 22.2143 5.19944 20.1743 5.19944C17.5543 5.19944 15.5943 6.69944 15.5943 8.89944C15.5943 13.6594 23.4943 11.7594 23.4943 15.1994C23.4943 16.2194 22.7343 17.4994 20.3543 17.4994C18.4743 17.4994 17.0343 16.5794 16.1543 15.5994L15.1743 16.8594C16.2743 18.0994 17.9743 18.9794 20.2943 18.9794ZM32.2531 18.7394C36.3931 18.7394 39.0931 15.8794 39.0931 12.0794C39.0931 8.29944 36.3931 5.39944 32.2531 5.39944H27.6931V18.7394H32.2531ZM32.2531 17.2594H29.3531V6.87944H32.2531C35.5531 6.87944 37.3731 9.19944 37.3731 12.0794C37.3731 14.9394 35.4931 17.2594 32.2531 17.2594Z" fill="#22262A"/>
<path d="M47.9285 15.7394L44.5955 11.7394H51.2625L47.9285 15.7394Z" fill="#22262A"/>
</svg>
